<svg xmlns="http://www.w3.org/2000/svg" viewBox="0 0 750 500"><g id="freepik--background-complete--inject-35"><path d="M134,111.92l-10.53-6.53-2,3.23a2.93,2.93,0,0,1-2.77,1.36,16.33,16.33,0,0,0-1.85,0,3,3,0,0,1-2.68-1.54l-1.79-3.34-10.93,5.85,1.8,3.35a3,3,0,0,1-.2,3.07,17.26,17.26,0,0,0-1,1.58,2.92,2.92,0,0,1-2.67,1.55l-3.79-.12-.39,12.39,3.81.11a2.94,2.94,0,0,1,2.56,1.73c.13.27.27.55.41.82s.3.53.46.79a3,3,0,0,1,0,3.08l-2,3.24L111,149l2-3.24a3,3,0,0,1,2.78-1.36c.61,0,1.22.07,1.84.06A3,3,0,0,1,120.3,146l1.8,3.34L133,143.51l-1.79-3.34a3,3,0,0,1,.19-3.08,14.1,14.1,0,0,0,1-1.57,2.94,2.94,0,0,1,2.68-1.55l3.8.11.38-12.38-3.8-.12a3,3,0,0,1-2.56-1.72c-.13-.28-.26-.55-.41-.82s-.3-.54-.45-.8a2.94,2.94,0,0,1,0-3.09Zm-7.82,10.49a10.15,10.15,0,1,1-13.74-4.15A10.15,10.15,0,0,1,126.19,122.41Z" style="fill:#ebebeb"></path><path d="M101.66,171.39l-4.34-7.52L95,165.2a2.07,2.07,0,0,1-2.16-.07,9.73,9.73,0,0,0-1.13-.65,2.08,2.08,0,0,1-1.14-1.84V160H81.91v2.66a2.08,2.08,0,0,1-1.14,1.84,9.73,9.73,0,0,0-1.13.65,2.07,2.07,0,0,1-2.16.07l-2.3-1.33-4.34,7.52,2.31,1.33a2.05,2.05,0,0,1,1,1.91c0,.22,0,.43,0,.64s0,.43,0,.64a2.06,2.06,0,0,1-1,1.91l-2.32,1.34,4.34,7.52,2.3-1.33a2.09,2.09,0,0,1,2.17.07,9.6,9.6,0,0,0,1.12.65,2.08,2.08,0,0,1,1.14,1.84v2.65h8.68v-2.65a2.08,2.08,0,0,1,1.14-1.84,9.6,9.6,0,0,0,1.12-.65,2.09,2.09,0,0,1,2.17-.07l2.3,1.33,4.34-7.52-2.31-1.33a2.06,2.06,0,0,1-1-1.91c0-.22,0-.43,0-.65s0-.42,0-.64a2.05,2.05,0,0,1,1-1.91Zm-8.3,3.88a7.11,7.11,0,1,1-7.11-7.11A7.11,7.11,0,0,1,93.36,175.27Z" style="fill:#ebebeb"></path><path d="M652.68,224.92l-4.34-7.52-2.3,1.33a2.05,2.05,0,0,1-2.16-.08c-.37-.23-.74-.45-1.13-.65a2.06,2.06,0,0,1-1.14-1.83v-2.66h-8.68v2.66a2,2,0,0,1-1.15,1.83c-.38.2-.76.42-1.12.65a2.05,2.05,0,0,1-2.16.08l-2.31-1.33-4.33,7.52,2.31,1.33a2.05,2.05,0,0,1,1,1.91c0,.22,0,.43,0,.64s0,.43,0,.64a2.05,2.05,0,0,1-1,1.91l-2.31,1.34,4.33,7.52,2.31-1.33a2.09,2.09,0,0,1,2.17.07,11.27,11.27,0,0,0,1.12.65,2.07,2.07,0,0,1,1.14,1.83v2.66h8.68v-2.66a2.07,2.07,0,0,1,1.14-1.83,11.27,11.27,0,0,0,1.12-.65,2.07,2.07,0,0,1,2.16-.07l2.31,1.33,4.34-7.52-2.31-1.33a2.09,2.09,0,0,1-1-1.91c0-.22,0-.43,0-.65s0-.42,0-.64a2.06,2.06,0,0,1,1-1.91Zm-8.3,3.88a7.11,7.11,0,1,1-7.11-7.11A7.11,7.11,0,0,1,644.38,228.8Z" style="fill:#ebebeb"></path><g id="freepik--aiZGp2--inject-35"><path d="M570.91,91.32a68.06,68.06,0,0,0-4.61,21.06H547.65v-.52l.15-1.43a52.2,52.2,0,0,1,1.23-7.35,56.62,56.62,0,0,1,4.15-11.5.42.42,0,0,1,.45-.27h17.28Z" style="fill:#ebebeb"></path><path d="M570.35,138.37H553.21a.4.4,0,0,1-.42-.27,52.24,52.24,0,0,1-4.25-13,49.65,49.65,0,0,1-.84-6.56c0-.07,0-.14-.05-.22v-.51a2.4,2.4,0,0,1,.28,0H566c.33,0,.32,0,.34.34.12,1.5.22,3,.36,4.49a58,58,0,0,0,1.15,7.06,64.36,64.36,0,0,0,2.43,8.39C570.29,138.18,570.31,138.26,570.35,138.37Z" style="fill:#ebebeb"></path><path d="M642.43,143.8c0,.1-.1.18-.14.25a52,52,0,0,1-4.86,6.3,47.61,47.61,0,0,1-7.12,6.56,50.84,50.84,0,0,1-16.68,8.36,52.4,52.4,0,0,1-7.14,1.52l-.7.12h-.41l-.4-.25.46-.33A54.64,54.64,0,0,0,619,153.22a61.76,61.76,0,0,0,5.53-9.16.39.39,0,0,1,.42-.27h17.53Z" style="fill:#ebebeb"></path><path d="M625.29,112.37H601.21v-21H620a.35.35,0,0,1,.37.25,58,58,0,0,1,3.83,12.33,60.1,60.1,0,0,1,.93,6.67C625.19,111.16,625.24,111.75,625.29,112.37Z" style="fill:#ebebeb"></path><path d="M625.14,118c0,.5,0,1-.07,1.48-.1,1.18-.19,2.35-.35,3.52-.23,1.61-.47,3.22-.8,4.82a56.84,56.84,0,0,1-3.12,10.27.41.41,0,0,1-.44.31H601.07V118Z" style="fill:#ebebeb"></path><path d="M595.78,91.45v21.07H572.27c0-.53.05-1.06.11-1.58.12-1.17.21-2.36.4-3.53.29-1.78.59-3.57,1-5.33a54.69,54.69,0,0,1,3.39-10.37.38.38,0,0,1,.4-.26h18.23Z" style="fill:#ebebeb"></path><path d="M595.81,118.26q0,9.9,0,19.81v.3H577a.39.39,0,0,1-.42-.27,54.13,54.13,0,0,1-3.2-10.62c-.35-1.87-.62-3.76-.85-5.65-.16-1.23-.2-2.48-.28-3.73a.78.78,0,0,1,0-.13h23.23C595.75,118,595.81,118,595.81,118.26Z" style="fill:#ebebeb"></path><path d="M650.82,112.52H631.09a68.45,68.45,0,0,0-4.6-21.2h18.39a.4.4,0,0,1,.43.26,51.79,51.79,0,0,1,4.55,13.19,57.39,57.39,0,0,1,1,7.4Z" style="fill:#ebebeb"></path><path d="M650.83,117.82c0,.48,0,.93-.06,1.38a52.91,52.91,0,0,1-.65,5.32,51.65,51.65,0,0,1-3.63,11.84c-.26.61-.56,1.22-.83,1.83a.28.28,0,0,1-.29.18H627.24l-.2,0c.22-.63.44-1.24.65-1.85a63.83,63.83,0,0,0,2.44-9.61,61.6,61.6,0,0,0,.85-7.16c0-.56.07-1.13.09-1.7,0-.15,0-.22.21-.21a1.08,1.08,0,0,0,.18,0Z" style="fill:#ebebeb"></path><path d="M641.89,86l0,.08H624.35a.4.4,0,0,1-.42-.24,58.91,58.91,0,0,0-8.56-12.69A47.69,47.69,0,0,0,608.8,67c-1.18-.91-2.4-1.76-3.6-2.63a1.3,1.3,0,0,1-.2-.15,2,2,0,0,1,.24-.16c0-.11-.07-.22-.12-.38A50.9,50.9,0,0,1,622.57,69,50.27,50.27,0,0,1,641.89,86Z" style="fill:#ebebeb"></path><path d="M592.44,166.67a1.76,1.76,0,0,1-.5.08,46.47,46.47,0,0,1-5.62-1.09,50.24,50.24,0,0,1-10-3.71,51.54,51.54,0,0,1-10.21-6.7,48.71,48.71,0,0,1-6.13-6.14,51.34,51.34,0,0,1-3.83-5.3.79.79,0,0,1-.08-.16H572.4a.39.39,0,0,1,.4.26,63,63,0,0,0,5.91,9.63,61.3,61.3,0,0,0,6.92,7.66,53.69,53.69,0,0,0,6.66,5.36S592.34,166.59,592.44,166.67Z" style="fill:#ebebeb"></path><path d="M592.23,64.24c-.74.53-1.6,1.14-2.44,1.78A61.36,61.36,0,0,0,582,73.27a54.54,54.54,0,0,0-8.17,11.65c-.14.27-.26.55-.42.8a.36.36,0,0,1-.25.16c-.29,0-.58,0-.87,0H556.59c8.75-12.36,20.5-19.79,35.46-22.06l-.11.21Z" style="fill:#ebebeb"></path><path d="M618.1,143.81a56.18,56.18,0,0,1-8,10.76,50.08,50.08,0,0,1-9.08,7.71V143.81Z" style="fill:#ebebeb"></path><path d="M595.78,143.82v18.11a52.36,52.36,0,0,1-16.34-18.11Z" style="fill:#ebebeb"></path><path d="M617.57,85.87H601.21V68.62a49.77,49.77,0,0,1,9.18,7.68A58.2,58.2,0,0,1,617.57,85.87Z" style="fill:#ebebeb"></path><path d="M595.78,69.16V86h-15.7A49.76,49.76,0,0,1,595.78,69.16Z" style="fill:#ebebeb"></path></g><path d="M103.54,335.77A29,29,0,1,1,74.9,302.56v29Z" style="fill:#dbdbdb"></path><path d="M109.76,325.62a28.24,28.24,0,0,1-.32,4.25l-28.65-4.25v-29a29,29,0,0,1,29,29Z" style="fill:#ebebeb"></path><rect x="89.59" y="347.06" width="30.8" height="1" style="fill:#c7c7c7"></rect><path d="M122.55,350.22a2.66,2.66,0,1,1,2.66-2.66A2.66,2.66,0,0,1,122.55,350.22Zm0-4.32a1.66,1.66,0,1,0,1.66,1.66A1.66,1.66,0,0,0,122.55,345.9Z" style="fill:#c7c7c7"></path><rect x="130.38" y="345.94" width="23.92" height="1.08" style="fill:#c7c7c7"></rect><rect x="130.38" y="348.1" width="13.54" height="1.08" style="fill:#c7c7c7"></rect><rect x="173.61" y="82.95" width="9.43" height="67.1" style="fill:#ebebeb"></rect><rect x="189.81" y="99.19" width="9.43" height="50.86" style="fill:#ebebeb"></rect><rect x="206.02" y="124.62" width="9.43" height="25.43" style="fill:#ebebeb"></rect><rect x="222.23" y="110.1" width="9.43" height="39.95" style="fill:#ebebeb"></rect><rect x="238.43" y="94.84" width="9.43" height="55.21" style="fill:#ebebeb"></rect><rect x="254.64" y="85.87" width="9.43" height="64.18" style="fill:#ebebeb"></rect><path d="M168.14,74.42l.11,18.91.05,18.9.08,37.82-.24-.24q13,0,26,0l26,.05,26,0,26,.14-26,.14-26,.05-26,0c-8.67,0-17.34,0-26,0h-.24v-.24l.08-37.82.05-18.9Z" style="fill:#ebebeb"></path><path d="M166.06,78.21a8.15,8.15,0,0,1,4.16,0,8.15,8.15,0,0,1-4.16,0Z" style="fill:#ebebeb"></path><path d="M166.06,84a8.15,8.15,0,0,1,4.16,0,8.15,8.15,0,0,1-4.16,0Z" style="fill:#ebebeb"></path><path d="M166.06,89.71a7.43,7.43,0,0,1,2.08-.27,7.08,7.08,0,0,1,2.08.27,7.07,7.07,0,0,1-2.08.26A7.42,7.42,0,0,1,166.06,89.71Z" style="fill:#ebebeb"></path><path d="M166.06,95.45a7.42,7.42,0,0,1,2.08-.26,7.07,7.07,0,0,1,2.08.26,7.08,7.08,0,0,1-2.08.27A7.43,7.43,0,0,1,166.06,95.45Z" style="fill:#ebebeb"></path><path d="M166.06,101.2a8.45,8.45,0,0,1,4.16,0,8.15,8.15,0,0,1-4.16,0Z" style="fill:#ebebeb"></path><path d="M166.06,107a8.15,8.15,0,0,1,4.16,0,8.15,8.15,0,0,1-4.16,0Z" style="fill:#ebebeb"></path><path d="M166.06,112.7a8.15,8.15,0,0,1,4.16,0,8.15,8.15,0,0,1-4.16,0Z" style="fill:#ebebeb"></path><path d="M166.06,118.45a8.15,8.15,0,0,1,4.16,0,8.45,8.45,0,0,1-4.16,0Z" style="fill:#ebebeb"></path><path d="M166.06,124.19a8.45,8.45,0,0,1,4.16,0,7.08,7.08,0,0,1-2.08.27A7.43,7.43,0,0,1,166.06,124.19Z" style="fill:#ebebeb"></path><path d="M166.06,129.94a8.45,8.45,0,0,1,4.16,0,8.15,8.15,0,0,1-4.16,0Z" style="fill:#ebebeb"></path><path d="M166.06,135.69a8.15,8.15,0,0,1,4.16,0,8.15,8.15,0,0,1-4.16,0Z" style="fill:#ebebeb"></path><path d="M166.06,141.44a8.15,8.15,0,0,1,4.16,0,8.15,8.15,0,0,1-4.16,0Z" style="fill:#ebebeb"></path></g><g id="freepik--Shadow--inject-35"><ellipse cx="158.5" cy="450.49" rx="110.68" ry="16.84" style="fill:#ebebeb"></ellipse></g><g id="freepik--Floor--inject-35"><polygon points="46.54 390.5 128.66 390.26 210.77 390.17 375 390 539.23 390.17 621.35 390.25 703.46 390.5 621.35 390.75 539.23 390.83 375 391 210.77 390.83 128.66 390.74 46.54 390.5" style="fill:#263238"></polygon></g><g id="freepik--Device--inject-35"><rect x="212.32" y="140.23" width="381.74" height="255.35" style="fill:#dbdbdb"></rect><rect x="215.1" y="143.35" width="376.19" height="249.12" style="fill:#263238"></rect><rect x="162.6" y="414.73" width="481.17" height="17.53" style="fill:#c7c7c7"></rect><polygon points="162.6 414.73 212.32 395.58 594.06 395.58 643.78 414.73 162.6 414.73" style="fill:#dbdbdb"></polygon><polygon points="216.76 407.94 248.85 395.58 557.53 395.58 589.62 407.94 216.76 407.94" style="fill:#263238"></polygon><rect x="236.36" y="162.27" width="333.67" height="211.27" style="fill:#fff"></rect><rect x="236.07" y="162.27" width="333.95" height="8.13" style="fill:#455a64"></rect><circle cx="240.52" cy="166.34" r="2.02" style="fill:#c7c7c7"></circle><circle cx="248.75" cy="166.34" r="2.02" style="fill:#fff"></circle><circle cx="256.98" cy="166.34" r="2.02" style="fill:#8396BF"></circle><rect x="251.15" y="299.35" width="50.72" height="34.7" style="fill:#ebebeb"></rect><path d="M251.15,301.89c2.18,1.23,4.32,2.53,6.48,3.79s4.29,2.57,6.42,3.88c4.28,2.6,8.51,5.26,12.75,7.92h-.57c4.23-2.66,8.47-5.32,12.74-7.92,2.13-1.31,4.28-2.6,6.42-3.88s4.3-2.56,6.48-3.79c-2.05,1.44-4.13,2.82-6.2,4.23s-4.16,2.77-6.26,4.14c-4.18,2.75-8.39,5.44-12.61,8.12l-.29.18-.28-.18c-4.22-2.68-8.44-5.37-12.62-8.12q-3.14-2.06-6.26-4.14C255.29,304.71,253.2,303.33,251.15,301.89Z" style="fill:#fff"></path><path d="M251.28,327.88c1.53-1.34,3.13-2.6,4.75-3.83s3.27-2.41,4.93-3.59,3.35-2.3,5.06-3.39,3.44-2.17,5.23-3.15c-1.53,1.34-3.13,2.6-4.75,3.83s-3.27,2.41-4.93,3.59-3.35,2.29-5.06,3.39S253.07,326.9,251.28,327.88Z" style="fill:#fff"></path><path d="M301.75,327.88c-1.79-1-3.52-2.05-5.23-3.15s-3.39-2.24-5.06-3.39-3.32-2.36-4.93-3.59-3.22-2.49-4.76-3.83c1.79,1,3.52,2.05,5.23,3.15s3.39,2.24,5.06,3.39,3.32,2.36,4.93,3.59S300.21,326.54,301.75,327.88Z" style="fill:#fff"></path><polygon points="305.08 341.89 308.3 349.68 305.08 351.01 301.84 343.17 296.52 347.3 296.52 325.37 311.87 340.88 305.08 341.89" style="fill:#263238"></polygon><path d="M296.52,323a3.15,3.15,0,0,1,0-2.21,3.31,3.31,0,0,1,0,2.21Z" style="fill:#263238"></path><path d="M294.62,323.76a2.87,2.87,0,0,1-.92-.64,2.91,2.91,0,0,1-.64-.92,3.28,3.28,0,0,1,1.56,1.56Z" style="fill:#263238"></path><path d="M293.83,325.66a2.85,2.85,0,0,1-1.1.2,2.82,2.82,0,0,1-1.1-.2,2.81,2.81,0,0,1,1.1-.19A2.84,2.84,0,0,1,293.83,325.66Z" style="fill:#263238"></path><path d="M294.62,327.56a3,3,0,0,1-.64.92,2.87,2.87,0,0,1-.92.64,3.17,3.17,0,0,1,1.56-1.56Z" style="fill:#263238"></path><path d="M299.2,325.66a2.89,2.89,0,0,1,1.11-.19,2.84,2.84,0,0,1,1.1.19,2.85,2.85,0,0,1-1.1.2A2.9,2.9,0,0,1,299.2,325.66Z" style="fill:#263238"></path><path d="M298.42,323.76a2.72,2.72,0,0,1,.64-.91,2.79,2.79,0,0,1,.92-.65,2.91,2.91,0,0,1-.64.92A2.87,2.87,0,0,1,298.42,323.76Z" style="fill:#263238"></path><polygon points="450.89 348.1 413.19 338.42 425.62 290.02 453.61 297.21 460.95 308.93 450.89 348.1" style="fill:#ebebeb"></polygon><polygon points="453.61 297.21 460.95 308.93 451.24 306.43 453.61 297.21" style="fill:#dbdbdb"></polygon><rect x="426.71" y="301.76" width="21.64" height="1.28" transform="translate(786.1 704.12) rotate(-165.6)" style="fill:#dbdbdb"></rect><rect x="425.9" y="304.9" width="21.64" height="1.28" transform="translate(783.74 710.09) rotate(-165.6)" style="fill:#dbdbdb"></rect><rect x="425.1" y="308.03" width="21.64" height="1.28" transform="translate(781.37 716.06) rotate(-165.6)" style="fill:#dbdbdb"></rect><rect x="424.13" y="312.42" width="31.71" height="1.28" transform="translate(788.29 725.71) rotate(-165.6)" style="fill:#dbdbdb"></rect><rect x="423.33" y="315.56" width="31.71" height="1.28" transform="translate(785.93 731.69) rotate(-165.6)" style="fill:#dbdbdb"></rect><rect x="422.52" y="318.69" width="31.71" height="1.28" transform="translate(783.56 737.66) rotate(-165.6)" style="fill:#dbdbdb"></rect><rect x="421.72" y="321.83" width="31.71" height="1.28" transform="translate(781.19 743.64) rotate(-165.6)" style="fill:#dbdbdb"></rect><rect x="420.91" y="324.97" width="31.71" height="1.28" transform="translate(778.83 749.61) rotate(-165.6)" style="fill:#dbdbdb"></rect><rect x="420.11" y="328.1" width="31.71" height="1.28" transform="translate(776.47 755.59) rotate(-165.6)" style="fill:#dbdbdb"></rect><rect x="419.3" y="331.24" width="31.71" height="1.28" transform="translate(774.1 761.56) rotate(-165.6)" style="fill:#dbdbdb"></rect><rect x="418.5" y="334.38" width="31.71" height="1.28" transform="translate(771.73 767.53) rotate(-165.6)" style="fill:#dbdbdb"></rect><rect x="417.69" y="337.51" width="31.71" height="1.28" transform="translate(769.37 773.51) rotate(-165.6)" style="fill:#dbdbdb"></rect><polygon points="334.53 279.8 383.22 281.6 384.39 249.04 335.7 247.24 334.53 279.8" style="fill:#ebebeb"></polygon><polygon points="336.63 277.85 381.27 279.5 382.29 250.99 337.65 249.34 336.63 277.85" style="fill:#fff"></polygon><path d="M341.38,258.38a4.86,4.86,0,1,0,5-4.68A4.85,4.85,0,0,0,341.38,258.38Z" style="fill:#dbdbdb"></path><polygon points="350.49 278.41 381.24 279.54 366.64 258.13 350.49 278.41" style="fill:#dbdbdb"></polygon><polygon points="338.43 277.97 363.82 278.91 351.63 264.87 338.43 277.97" style="fill:#ebebeb"></polygon><polygon points="316.12 302.97 363.82 293.02 357.13 261.13 309.44 271.07 316.12 302.97" style="fill:#ebebeb"></polygon><polygon points="317.69 300.57 361.43 291.45 355.57 263.53 311.83 272.65 317.69 300.57" style="fill:#fff"></polygon><path d="M317.62,280.53a4.86,4.86,0,1,0,3.77-5.75A4.87,4.87,0,0,0,317.62,280.53Z" style="fill:#dbdbdb"></path><polygon points="331.28 297.78 361.4 291.5 342.08 274.22 331.28 297.78" style="fill:#dbdbdb"></polygon><polygon points="319.47 300.25 344.34 295.07 329.13 284.36 319.47 300.25" style="fill:#ebebeb"></polygon></g><g id="freepik--Arrows--inject-35"><rect x="465.79" y="300.29" width="16.13" height="62.93" style="fill:#8396BF"></rect><rect x="465.79" y="366.33" width="16.13" height="10.36" style="fill:#8396BF"></rect><rect x="465.79" y="379.8" width="16.13" height="6.39" style="fill:#8396BF"></rect><rect x="465.79" y="389.3" width="16.13" height="3.17" style="fill:#8396BF"></rect><polygon points="487.29 300.29 460.41 300.29 473.85 281.69 487.29 300.29" style="fill:#8396BF"></polygon><rect x="497.89" y="280.29" width="16.13" height="82.93" style="fill:#8396BF"></rect><rect x="497.89" y="366.33" width="16.13" height="10.36" style="fill:#8396BF"></rect><rect x="497.89" y="379.8" width="16.13" height="6.39" style="fill:#8396BF"></rect><rect x="497.89" y="389.3" width="16.13" height="3.17" style="fill:#8396BF"></rect><polygon points="519.4 280.29 492.51 280.29 505.96 261.69 519.4 280.29" style="fill:#8396BF"></polygon><rect x="530" y="260.29" width="16.13" height="102.93" style="fill:#8396BF"></rect><rect x="530" y="366.33" width="16.13" height="10.36" style="fill:#8396BF"></rect><rect x="530" y="379.8" width="16.13" height="6.39" style="fill:#8396BF"></rect><rect x="530" y="389.3" width="16.13" height="3.17" style="fill:#8396BF"></rect><polygon points="551.5 260.29 524.62 260.29 538.06 241.69 551.5 260.29" style="fill:#8396BF"></polygon><rect x="562.1" y="240.29" width="16.13" height="122.93" style="fill:#8396BF"></rect><rect x="562.1" y="366.33" width="16.13" height="10.36" style="fill:#8396BF"></rect><rect x="562.1" y="379.8" width="16.13" height="6.39" style="fill:#8396BF"></rect><rect x="562.1" y="389.3" width="16.13" height="3.17" style="fill:#8396BF"></rect><polygon points="583.61 240.29 556.73 240.29 570.17 221.69 583.61 240.29" style="fill:#8396BF"></polygon></g><g id="freepik--Rocket--inject-35"><path d="M308.85,350.11a7.09,7.09,0,1,1-7.09-7.09A7.09,7.09,0,0,1,308.85,350.11Z" style="fill:#8396BF;opacity:0.6000000000000001"></path><path d="M317.48,336.56a3.46,3.46,0,1,1-3.45-3.45A3.45,3.45,0,0,1,317.48,336.56Z" style="fill:#8396BF;opacity:0.6000000000000001"></path><path d="M469.25,346.68a3.46,3.46,0,1,1-3.46-3.46A3.46,3.46,0,0,1,469.25,346.68Z" style="fill:#8396BF;opacity:0.6000000000000001"></path><path d="M538.48,378.24a3.46,3.46,0,1,1-3.46-3.45A3.46,3.46,0,0,1,538.48,378.24Z" style="fill:#8396BF;opacity:0.6000000000000001"></path><path d="M533.18,388.35a4.13,4.13,0,0,1-4.12,4.12H272a4.12,4.12,0,0,1,0-8.24,4.46,4.46,0,0,1,1,.11,8.13,8.13,0,0,1,13.94-5.68l.08,0c0-.5-.08-1-.08-1.52A15.36,15.36,0,0,1,309,363.33,11,11,0,0,1,330.18,360a15.34,15.34,0,0,1,13-7.17,15.76,15.76,0,0,1,2.94.28,20.11,20.11,0,0,1-.31-3.58,20.76,20.76,0,0,1,34.32-15.73,4.11,4.11,0,0,1,3.66-2.24,4.17,4.17,0,0,1,1.58.32l3.86-103.08h22.64l3.86,103.08A4.1,4.1,0,0,1,421,333.8a20.76,20.76,0,0,1,34.32,15.73,20.11,20.11,0,0,1-.31,3.58,15.73,15.73,0,0,1,2.93-.28,15.34,15.34,0,0,1,13,7.17A11,11,0,0,1,492,363.33a15.36,15.36,0,0,1,22.1,13.78c0,.51,0,1-.08,1.52l.08,0a8.13,8.13,0,0,1,13.94,5.68,4.46,4.46,0,0,1,1-.11A4.12,4.12,0,0,1,533.18,388.35Z" style="fill:#8396BF;opacity:0.6000000000000001"></path><polygon points="468.01 354.42 462.67 355.4 461.47 361.04 460.28 355.4 454.93 354.41 460.25 353.11 461.47 347.79 462.69 353.11 468.01 354.42" style="fill:#fcfcfc"></polygon><polygon points="416.02 309.23 410.67 310.22 409.48 315.85 408.29 310.22 402.94 309.23 408.26 307.93 409.48 302.6 410.7 307.93 416.02 309.23" style="fill:#fcfcfc"></polygon><polygon points="338.34 365.15 335.35 365.7 334.68 368.85 334.02 365.7 331.03 365.14 334 364.42 334.68 361.44 335.36 364.42 338.34 365.15" style="fill:#fcfcfc"></polygon><polygon points="499.09 374.54 496.1 375.09 495.44 378.24 494.77 375.09 491.78 374.54 494.75 373.81 495.44 370.84 496.12 373.81 499.09 374.54" style="fill:#fcfcfc"></polygon><polygon points="297.22 385.58 294.24 386.13 293.57 389.28 292.9 386.13 289.91 385.58 292.89 384.85 293.57 381.87 294.25 384.85 297.22 385.58" style="fill:#fcfcfc"></polygon><polygon points="427.18 382.96 424.19 383.51 423.52 386.66 422.86 383.51 419.87 382.96 422.84 382.23 423.52 379.25 424.2 382.23 427.18 382.96" style="fill:#fcfcfc"></polygon><polygon points="405.31 300.66 402.32 301.21 401.65 304.36 400.98 301.21 398 300.66 400.97 299.93 401.65 296.96 402.33 299.93 405.31 300.66" style="fill:#fcfcfc"></polygon><path d="M506.16,381.35a.87.87,0,0,0,0,1.73A.87.87,0,0,0,506.16,381.35Z" style="fill:#fcfcfc"></path><path d="M393.74,289.74a.87.87,0,0,0,0,1.73A.87.87,0,0,0,393.74,289.74Z" style="fill:#fcfcfc"></path><path d="M319.86,385.58a.87.87,0,0,0,0,1.73A.87.87,0,0,0,319.86,385.58Z" style="fill:#fcfcfc"></path><path d="M374.75,373.67a.87.87,0,0,0,0,1.74A.87.87,0,0,0,374.75,373.67Z" style="fill:#fcfcfc"></path><path d="M484.46,365.78a.61.61,0,0,0,0,1.22A.61.61,0,0,0,484.46,365.78Z" style="fill:#fcfcfc"></path><path d="M408.76,356.59a.62.62,0,0,0,0,1.23A.62.62,0,0,0,408.76,356.59Z" style="fill:#fcfcfc"></path><path d="M353.34,344.62a.61.61,0,0,0,0,1.22A.61.61,0,0,0,353.34,344.62Z" style="fill:#fcfcfc"></path><path d="M448.15,347.12a1.66,1.66,0,0,0,0,3.32A1.66,1.66,0,0,0,448.15,347.12Z" style="fill:#fcfcfc"></path><path d="M361.19,339a1.66,1.66,0,0,0,0,3.32A1.66,1.66,0,0,0,361.19,339Z" style="fill:#fcfcfc"></path><path d="M362,147.32c-.81,0-31,13.94-32.81,48.28-1.64,31.56,20.18,61.54,23,59.55,3.45-2.43-2.42-22.09,4.29-44.59,2.38-8,12.78-15.06,12.78-15.06Z" style="fill:#8396BF"></path><path d="M369.27,195.5A47.84,47.84,0,0,0,361,203c-4.49-10-12.87-28.75-18.29-40.89,8.85-10.23,18.83-14.74,19.29-14.74Z" style="opacity:0.1"></path><path d="M438.88,147.38c.81,0,31,14,32.74,48.32,1.6,31.57-20.27,61.51-23.09,59.52-3.44-2.43,2.45-22.09-4.22-44.6-2.37-8-12.76-15.07-12.76-15.07Z" style="fill:#8396BF"></path><path d="M458.26,162.27c-5.47,12.23-13.86,31-18.3,40.9a47.87,47.87,0,0,0-8.41-7.62l7.33-48.18C439.34,147.37,449.41,151.94,458.26,162.27Z" style="opacity:0.1"></path><path d="M423.28,226.31l-45.57,0s-21.47-38.39-18.93-84.16c1.28-22.85,7.25-45.86,14.44-64.89,9.89-26.29,22.12-44.94,27.42-44.93S418.14,51,428,77.26c7.14,19,13.08,42.06,14.33,64.91C444.81,187.94,423.28,226.31,423.28,226.31Z" style="fill:#ebebeb"></path><path d="M427.84,136.24a26.29,26.29,0,1,1-26.27-26.3A26.29,26.29,0,0,1,427.84,136.24Z" style="fill:#c7c7c7"></path><path d="M426.91,133.56a26.29,26.29,0,1,1-26.27-26.3A26.29,26.29,0,0,1,426.91,133.56Z" style="fill:#8396BF"></path><path d="M418.85,133.55a18.23,18.23,0,1,1-18.23-18.23A18.23,18.23,0,0,1,418.85,133.55Z" style="fill:#fff"></path><path d="M418.86,133.54a18.15,18.15,0,0,1-1.24,6.61l-10.39,10.39a18,18,0,0,1-6.6,1.23,17.86,17.86,0,0,1-4.88-.67l22.44-22.43A18.18,18.18,0,0,1,418.86,133.54Z" style="fill:#ebebeb"></path><path d="M403.3,115.52l-20.71,20.7a18,18,0,0,1-.2-2.67,18.22,18.22,0,0,1,20.91-18Z" style="fill:#ebebeb"></path><path d="M416.58,124.72,391.8,149.49a14.62,14.62,0,0,1-1.4-.86l25.32-25.31C416,123.77,416.3,124.24,416.58,124.72Z" style="fill:#ebebeb"></path><path d="M428,77.26l-54.79,0c9.89-26.29,22.12-44.94,27.42-44.93S418.14,51,428,77.26Z" style="fill:#8396BF"></path><path d="M382.65,71.57A1.53,1.53,0,1,1,381.12,70,1.53,1.53,0,0,1,382.65,71.57Z" style="fill:#fff"></path><path d="M392.4,71.57A1.54,1.54,0,1,1,390.87,70,1.54,1.54,0,0,1,392.4,71.57Z" style="fill:#fff"></path><path d="M402.15,71.58a1.54,1.54,0,1,1-1.53-1.53A1.53,1.53,0,0,1,402.15,71.58Z" style="fill:#fff"></path><path d="M411.9,71.59a1.54,1.54,0,1,1-1.54-1.54A1.53,1.53,0,0,1,411.9,71.59Z" style="fill:#fff"></path><path d="M421.64,71.59a1.54,1.54,0,1,1-1.53-1.53A1.54,1.54,0,0,1,421.64,71.59Z" style="fill:#fff"></path><path d="M382.59,219.27a1.54,1.54,0,1,1-1.53-1.54A1.54,1.54,0,0,1,382.59,219.27Z" style="fill:#c7c7c7"></path><path d="M392.34,219.27a1.54,1.54,0,1,1-1.54-1.53A1.54,1.54,0,0,1,392.34,219.27Z" style="fill:#c7c7c7"></path><path d="M402.09,219.28a1.54,1.54,0,1,1-1.54-1.54A1.54,1.54,0,0,1,402.09,219.28Z" style="fill:#c7c7c7"></path><path d="M411.83,219.29a1.54,1.54,0,1,1-1.53-1.54A1.54,1.54,0,0,1,411.83,219.29Z" style="fill:#c7c7c7"></path><path d="M421.58,219.29a1.54,1.54,0,1,1-1.53-1.53A1.54,1.54,0,0,1,421.58,219.29Z" style="fill:#c7c7c7"></path><polygon points="419.08 240.01 382.01 239.98 380.28 226.28 420.83 226.31 419.08 240.01" style="fill:#8396BF"></polygon><polygon points="420.83 226.31 419.97 232.98 380.94 231.52 380.29 226.28 420.83 226.31" style="opacity:0.1"></polygon></g></svg>